<svg xmlns="http://www.w3.org/2000/svg" viewBox="0 0 540 720">
<style>.t{font-family:Arial,sans-serif;fill:#202124}.h{font-size:23px;font-weight:700;fill:#d64a2c}.s{font-size:13px}.l{stroke:#292929;stroke-width:1.4;fill:none}.br{fill:#c98b62;stroke:#7e593f;stroke-width:1}.m{fill:#d7dde1;stroke:#45515a;stroke-width:1.4}.b{fill:#efe5c8;stroke:#7b6c4e;stroke-width:1.3}.w{fill:#d9c08b;stroke:#907044;stroke-width:1}.c{fill:#e8e8e8;stroke:#777;stroke-width:1.2}.a{stroke:#d64a2c;stroke-width:4}</style>
<rect width="540" height="720" fill="#fff"/><rect x="523" width="17" height="720" fill="#d64a2c"/>
<text class="h" x="28" y="42">Ejemplo de montaje · Trasdosado semidirecto</text><text class="t s" x="28" y="66">Detalle técnico simplificado</text><line class="a" x1="28" y1="78" x2="500" y2="78"/>
<g transform="translate(38 102)">
<rect class="c" x="35" y="0" width="370" height="20"/><rect class="c" x="35" y="282" width="370" height="20"/>
<rect class="br" x="45" y="34" width="88" height="232"/><path class="l" d="M45 72h88M45 110h88M45 148h88M45 186h88M45 224h88"/>
<path class="m" d="M148 44h14v210h-14zM210 44h14v210h-14zM272 44h14v210h-14z"/>
<rect class="w" x="164" y="50" width="44" height="198"/><rect class="w" x="226" y="50" width="44" height="198"/>
<rect class="b" x="300" y="34" width="98" height="232"/>
<text class="t s" x="0" y="130">Muro soporte</text><line class="l" x1="82" y1="126" x2="100" y2="126"/>
<text class="t s" x="135" y="27">Maestra / omega</text><line class="l" x1="188" y1="31" x2="155" y2="44"/>
<text class="t s" x="180" y="272">Lana mineral</text><text class="t s" x="402" y="130">Placa PYL</text>
<path class="l" d="M148 316h124m-124-6v12m124-12v12"/><text class="t s" x="190" y="337">600 mm</text>
</g>
<g transform="translate(70 470)">
<rect class="br" x="0" y="0" width="92" height="150"/><rect class="m" x="116" y="8" width="12" height="134"/><rect class="m" x="176" y="8" width="12" height="134"/><rect class="m" x="236" y="8" width="12" height="134"/>
<rect class="w" x="130" y="14" width="44" height="122"/><rect class="w" x="190" y="14" width="44" height="122"/><rect class="b" x="270" y="0" width="86" height="150"/>
<text class="t s" x="75" y="176">Vista frontal de modulación</text>
</g></svg>