<svg xmlns="http://www.w3.org/2000/svg" viewBox="0 0 540 720"><style>
text{font-family:Arial,Helvetica,sans-serif;fill:#202124}.title{font-size:27px;font-weight:800;fill:#fff}.sub{font-size:14px;font-weight:700}.lab{font-size:13px;font-weight:700}.dim{font-size:12px}.call{stroke:#222;stroke-width:1.4;fill:none}.metal{fill:#d9e1e5;stroke:#44515a;stroke-width:1.5}.metal2{fill:#bfcbd1;stroke:#44515a;stroke-width:1.3}.board{fill:#efe5c7;stroke:#756b55;stroke-width:1.4}.wool{fill:#d9bf7a;stroke:#957338;stroke-width:1.1}.slab{fill:#d7d7d7;stroke:#666;stroke-width:1.4}.brick{fill:#c8895e;stroke:#7c563d;stroke-width:1}.adh{fill:#bababa;stroke:#777;stroke-width:1}.edge{stroke:#d84b24;stroke-width:3}.screw{fill:#333}.diml{stroke:#333;stroke-width:1.1;fill:none}</style><defs><pattern id="bp" width="42" height="24" patternUnits="userSpaceOnUse"><rect width="42" height="24" fill="#c8895e"/><path d="M0 0h42M0 24h42M0 12h42M21 0v12M10 12v12M32 12v12" stroke="#8a5b3d" stroke-width=".8"/></pattern></defs><rect width="540" height="720" fill="#fff"/><rect x="0" y="0" width="540" height="62" fill="#e64b1a"/><rect x="528" y="0" width="12" height="720" fill="#e64b1a"/>
<text class="title" x="24" y="40">TRASDOSADO AUTOPORTANTE</text><text class="sub" x="24" y="86">Canal + montantes independientes del muro</text>
<g transform="translate(35 108)"><path class="slab" d="M20 0h405l28 15H48z"/><path class="slab" d="M20 320h405l28 15H48z"/><path fill="url(#bp)" d="M28 42h110v252H28z"/>
<path class="metal" d="M165 45h140l18 7H182zM165 280h140l18 7H182z"/><path class="metal" d="M180 55l12 3v219l-12-3zM237 55l12 3v219l-12-3zM294 55l12 3v219l-12-3z"/>
<rect class="wool" x="195" y="68" width="39" height="194"/><rect class="wool" x="252" y="68" width="39" height="194"/><path class="board" d="M320 48h105l18 8v226l-18 10H320z"/>
<path class="call" d="M82 155H0"/><text class="lab" x="-15" y="150">Muro existente</text><path class="call" d="M184 75L100 30"/><text class="lab" x="42" y="22">Canal superior</text><path class="call" d="M245 160L105 225"/><text class="lab" x="15" y="241">Montantes</text><path class="call" d="M380 165h82"/><text class="lab" x="464" y="169">Placa PYL</text>
<path class="diml" d="M180 28h57M180 22v12M237 22v12"/><text class="dim" x="190" y="17">Modulación</text></g>
<g transform="translate(60 505)"><rect fill="url(#bp)" x="0" y="0" width="92" height="140"/><path class="metal" d="M120 0h210v9H120zM120 131h210v9H120zM132 9h10v122h-10zM190 9h10v122h-10zM248 9h10v122h-10z"/><rect class="wool" x="145" y="15" width="42" height="110"/><rect class="wool" x="203" y="15" width="42" height="110"/><rect class="board" x="330" y="0" width="68" height="140"/><text class="lab" x="97" y="170">Estructura independiente del soporte</text></g></svg>